<svg id="_0329_online_store" xmlns="http://www.w3.org/2000/svg" xmlns:xlink="http://www.w3.org/1999/xlink" viewBox="0 0 500 500" data-imageid="online-store-87" imageName="Online Store" class="illustrations_image" style="width: 188px;"><defs><style>.cls-1_online-store-87{fill:url(#linear-gradient);}.cls-1_online-store-87,.cls-2_online-store-87,.cls-3_online-store-87,.cls-4_online-store-87,.cls-5_online-store-87,.cls-6_online-store-87,.cls-7_online-store-87,.cls-8_online-store-87,.cls-9_online-store-87,.cls-10_online-store-87,.cls-11_online-store-87,.cls-12_online-store-87,.cls-13_online-store-87,.cls-14_online-store-87,.cls-15_online-store-87,.cls-16_online-store-87,.cls-17_online-store-87,.cls-18_online-store-87,.cls-19_online-store-87,.cls-20_online-store-87,.cls-21_online-store-87,.cls-22_online-store-87,.cls-23_online-store-87,.cls-24_online-store-87,.cls-25_online-store-87,.cls-26_online-store-87,.cls-27_online-store-87,.cls-28_online-store-87,.cls-29_online-store-87,.cls-30_online-store-87,.cls-31_online-store-87,.cls-32_online-store-87,.cls-33_online-store-87,.cls-34_online-store-87,.cls-35_online-store-87,.cls-36_online-store-87{stroke-width:0px;}.cls-2_online-store-87{fill:url(#linear-gradient-29-online-store-87);}.cls-3_online-store-87{fill:url(#linear-gradient-30-online-store-87);}.cls-4_online-store-87{fill:url(#linear-gradient-28-online-store-87);}.cls-5_online-store-87{fill:url(#linear-gradient-25-online-store-87);}.cls-6_online-store-87{fill:url(#linear-gradient-11-online-store-87);}.cls-7_online-store-87{fill:url(#linear-gradient-12-online-store-87);}.cls-8_online-store-87{fill:url(#linear-gradient-13-online-store-87);}.cls-9_online-store-87{fill:url(#linear-gradient-10-online-store-87);}.cls-10_online-store-87{fill:url(#linear-gradient-17-online-store-87);}.cls-11_online-store-87{fill:url(#linear-gradient-16-online-store-87);}.cls-12_online-store-87{fill:url(#linear-gradient-19-online-store-87);}.cls-13_online-store-87{fill:url(#linear-gradient-15-online-store-87);}.cls-14_online-store-87{fill:url(#linear-gradient-23-online-store-87);}.cls-15_online-store-87{fill:url(#linear-gradient-21-online-store-87);}.cls-16_online-store-87{fill:url(#linear-gradient-18-online-store-87);}.cls-17_online-store-87{fill:url(#linear-gradient-14-online-store-87);}.cls-18_online-store-87{fill:url(#linear-gradient-22-online-store-87);}.cls-19_online-store-87{fill:url(#linear-gradient-20-online-store-87);}.cls-20_online-store-87{fill:url(#linear-gradient-27-online-store-87);}.cls-21_online-store-87{fill:url(#linear-gradient-24-online-store-87);}.cls-22_online-store-87{fill:url(#linear-gradient-26-online-store-87);}.cls-23_online-store-87{opacity:.66;}.cls-23_online-store-87,.cls-24_online-store-87{isolation:isolate;}.cls-23_online-store-87,.cls-24_online-store-87,.cls-36_online-store-87{fill:#68e1fd;}.cls-24_online-store-87{opacity:.41;}.cls-25_online-store-87{fill:url(#linear-gradient-4-online-store-87);}.cls-26_online-store-87{fill:url(#linear-gradient-2-online-store-87);}.cls-27_online-store-87{fill:url(#linear-gradient-3-online-store-87);}.cls-28_online-store-87{fill:url(#linear-gradient-8-online-store-87);}.cls-29_online-store-87{fill:url(#linear-gradient-9-online-store-87);}.cls-30_online-store-87{fill:url(#linear-gradient-7-online-store-87);}.cls-31_online-store-87{fill:url(#linear-gradient-5-online-store-87);}.cls-32_online-store-87{fill:url(#linear-gradient-6-online-store-87);}.cls-33_online-store-87{fill:#c14834;}.cls-34_online-store-87{fill:#fff;}.cls-35_online-store-87{fill:#ffb4a3;}</style><linearGradient id="linear-gradient-online-store-87" x1="308.29" y1="1676.83" x2="299.12" y2="1538.38" gradientTransform="translate(-67.33 2008.89) scale(1 -1)" gradientUnits="userSpaceOnUse"><stop offset="0" stop-color="#231f20" stop-opacity="0"/><stop offset="1" stop-color="#231f20"/></linearGradient><linearGradient id="linear-gradient-2-online-store-87" x1="269.35" y1="1771.74" x2="538.46" y2="1782.65" gradientTransform="translate(-31 2015.62) scale(1 -1)" xlink:href="#linear-gradient-online-store-87"/><linearGradient id="linear-gradient-3-online-store-87" x1="357.38" y1="1593.01" x2="350.11" y2="1791.8" xlink:href="#linear-gradient-online-store-87"/><linearGradient id="linear-gradient-4-online-store-87" x1="350.71" y1="1707.69" x2="367.62" y2="1571.58" xlink:href="#linear-gradient-online-store-87"/><linearGradient id="linear-gradient-5-online-store-87" x1="272.15" y1="1920.11" x2="265.33" y2="1833.08" gradientTransform="translate(-31 2015.62) scale(1 -1)" xlink:href="#linear-gradient-online-store-87"/><linearGradient id="linear-gradient-6-online-store-87" x1="321.1" y1="1920.82" x2="314.19" y2="1832.7" gradientTransform="translate(-31 2015.62) scale(1 -1)" xlink:href="#linear-gradient-online-store-87"/><linearGradient id="linear-gradient-7-online-store-87" x1="313.22" y1="1925.12" x2="306.32" y2="1837.01" gradientTransform="translate(-31 2015.62) scale(1 -1)" xlink:href="#linear-gradient-online-store-87"/><linearGradient id="linear-gradient-8-online-store-87" x1="357.67" y1="1925.12" x2="350.76" y2="1837.01" gradientTransform="translate(-31 2015.62) scale(1 -1)" xlink:href="#linear-gradient-online-store-87"/><linearGradient id="linear-gradient-9-online-store-87" x1="303.04" y1="1897.27" x2="311.69" y2="1817.7" gradientTransform="translate(-67.33 2008.89) scale(1 -1)" gradientUnits="userSpaceOnUse"><stop offset=".02" stop-color="#fff" stop-opacity="0"/><stop offset=".32" stop-color="#fff" stop-opacity=".39"/><stop offset=".68" stop-color="#fff" stop-opacity=".68"/><stop offset="1" stop-color="#fff"/></linearGradient><linearGradient id="linear-gradient-10-online-store-87" x1="279.38" y1="1894.7" x2="288.03" y2="1815.13" xlink:href="#linear-gradient-online-store-87"/><linearGradient id="linear-gradient-11-online-store-87" x1="350.29" y1="1902.28" x2="358.94" y2="1822.7" xlink:href="#linear-gradient-9-online-store-87"/><linearGradient id="linear-gradient-12-online-store-87" x1="372.38" y1="1901.58" x2="380.89" y2="1823.27" xlink:href="#linear-gradient-online-store-87"/><linearGradient id="linear-gradient-13-online-store-87" x1="255.86" y1="1892.15" x2="264.51" y2="1812.57" xlink:href="#linear-gradient-9-online-store-87"/><linearGradient id="linear-gradient-14-online-store-87" x1="326.64" y1="1899.84" x2="335.29" y2="1820.27" xlink:href="#linear-gradient-online-store-87"/><linearGradient id="linear-gradient-15-online-store-87" x1="232.18" y1="1889.58" x2="240.83" y2="1809.99" xlink:href="#linear-gradient-online-store-87"/><linearGradient id="linear-gradient-16-online-store-87" x1="210.45" y1="1890.2" x2="267.15" y2="1890.2" gradientTransform="translate(-31 2015.62) scale(1 -1)" xlink:href="#linear-gradient-9-online-store-87"/><linearGradient id="linear-gradient-17-online-store-87" x1="258.37" y1="1890.31" x2="313.6" y2="1890.31" gradientTransform="translate(-31 2015.62) scale(1 -1)" xlink:href="#linear-gradient-9-online-store-87"/><linearGradient id="linear-gradient-18-online-store-87" x1="306.3" y1="1890.31" x2="361.53" y2="1890.31" gradientTransform="translate(-31 2015.62) scale(1 -1)" xlink:href="#linear-gradient-9-online-store-87"/><linearGradient id="linear-gradient-19-online-store-87" x1="402.55" y1="1873.5" x2="339.79" y2="1904.21" gradientTransform="translate(-31 2015.62) scale(1 -1)" xlink:href="#linear-gradient-online-store-87"/><linearGradient id="linear-gradient-20-online-store-87" x1="292.48" y1="1659.84" x2="296.26" y2="1596.81" gradientTransform="translate(-31 2015.62) scale(1 -1)" xlink:href="#linear-gradient-online-store-87"/><linearGradient id="linear-gradient-21-online-store-87" x1="315.22" y1="1752.92" x2="329.41" y2="1638.55" gradientTransform="translate(-31 2015.62) scale(1 -1)" xlink:href="#linear-gradient-online-store-87"/><linearGradient id="linear-gradient-22-online-store-87" x1="292.61" y1="1716.78" x2="253.14" y2="1706.36" gradientTransform="translate(-31 2015.62) scale(1 -1)" xlink:href="#linear-gradient-online-store-87"/><linearGradient id="linear-gradient-23-online-store-87" x1="320.52" y1="1711.17" x2="284.86" y2="1701.76" gradientTransform="translate(-31 2015.62) scale(1 -1)" xlink:href="#linear-gradient-online-store-87"/><linearGradient id="linear-gradient-24-online-store-87" x1="340.94" y1="1718.85" x2="328.65" y2="1687.37" gradientTransform="translate(-31 2015.62) scale(1 -1)" xlink:href="#linear-gradient-online-store-87"/><linearGradient id="linear-gradient-25-online-store-87" x1="333.72" y1="1669.17" x2="321.42" y2="1637.69" gradientTransform="translate(-31 2015.62) scale(1 -1)" xlink:href="#linear-gradient-online-store-87"/><linearGradient id="linear-gradient-26-online-store-87" x1="367.3" y1="1724.78" x2="350.9" y2="1682.81" gradientTransform="translate(-31 2015.62) scale(1 -1)" xlink:href="#linear-gradient-online-store-87"/><linearGradient id="linear-gradient-27-online-store-87" x1="357.3" y1="1675.49" x2="340.9" y2="1633.51" gradientTransform="translate(-31 2015.62) scale(1 -1)" xlink:href="#linear-gradient-online-store-87"/><linearGradient id="linear-gradient-28-online-store-87" x1="358.24" y1="1762.96" x2="375.99" y2="1695.42" gradientTransform="translate(-67.33 2008.89) scale(1 -1)" gradientUnits="userSpaceOnUse"><stop offset="0" stop-color="#000" stop-opacity="0"/><stop offset=".99" stop-color="#000"/></linearGradient><linearGradient id="linear-gradient-29-online-store-87" x1="177.83" y1="1807.17" x2="240.39" y2="1807.17" gradientTransform="translate(-31 2015.62) scale(1 -1)" xlink:href="#linear-gradient-9-online-store-87"/><linearGradient id="linear-gradient-30-online-store-87" x1="146.15" y1="1740.76" x2="201.55" y2="1740.76" gradientTransform="translate(-31 2015.62) scale(1 -1)" xlink:href="#linear-gradient-9-online-store-87"/></defs><g id="background_online-store-87"><path class="cls-24_online-store-87 targetColor" d="M451.24,371.51c-1.51,7.83-3.45,15.72-7.4,22.61-.37.64-.74,1.27-1.19,1.88v-.27l-390.79-1.07v1.69c-1.19-31.39-8.33-62.43-8.41-93.85-.03-18.15,2.33-36.23,7.02-53.77,4.41-16.51,10.97-32.65,21.12-46.4,27.7-37.56,76.4-51.55,115.84-76.49,41.96-26.52,56.56-86.06,102.68-104.42,24.31-9.71,52.74-7.9,76.18,3.74,23.44,11.64,41.85,32.72,51.34,57.11,12.16,31.28,9.98,65.97,13.87,99.3,4.9,42.12,19.62,82.57,23.19,124.74,1.85,21.79.69,43.74-3.45,65.21Z" style="fill: rgb(90, 87, 238);"/><path class="cls-23_online-store-87 targetColor" d="M442.7,395.77v.5c-25.75,52.14-86.17,82.17-114.33,82.91l-196.81,1.67c-44.84,0-79.8-37.46-79.8-82.3v-3.89l390.93,1.12Z" style="fill: rgb(90, 87, 238);"/><path class="cls-1_online-store-87" d="M103.24,414.72c-2.31.88-5.12,2.96-4,5.16.5.77,1.23,1.37,2.08,1.7,23.51,12.4,51.04,13.94,77.59,15.25l103.51,5.06c16.45.8,33.66,1.46,48.6-5.45,5.69-2.84,11.09-6.22,16.12-10.1,7.14-5.14,14.2-10.35,21.18-15.62,1.75-1.31,3.57-2.83,3.96-4.99.39-2.47-1.52-4.85-3.83-5.84-2.38-.81-4.92-1.1-7.42-.83-22.87.79-45.74,1.11-68.63.96-14.52-.08-29.08-.33-43.49-2.17-23.46-2.99-45.83-6.19-69.51-3.21-25.96,3.25-51.85,10.73-76.17,20.07Z"/></g><g id="online_store_online-store-87"><rect class="cls-36_online-store-87 targetColor" x="190.49" y="83.74" width="181.83" height="316.79" rx="22.06" ry="22.06" style="fill: rgb(90, 87, 238);"/><rect class="cls-26_online-store-87" x="190.49" y="83.74" width="181.83" height="316.79" rx="22.06" ry="22.06"/><rect class="cls-36_online-store-87 targetColor" x="179.17" y="83.74" width="181.83" height="316.79" rx="22.06" ry="22.06" style="fill: rgb(90, 87, 238);"/><path class="cls-34_online-store-87" d="M347.28,120.01v233.09c0,9.67-7.84,17.52-17.51,17.53h-118.5c-9.67,0-17.51-7.84-17.51-17.51h0V120.01c0-7.97,6.45-14.44,14.42-14.44h124.67c7.97,0,14.44,6.47,14.44,14.44Z"/><path class="cls-36_online-store-87 targetColor" d="M347.28,275.68v77.42c0,9.67-7.84,17.52-17.51,17.53h-103.72v-94.95h121.23Z" style="fill: rgb(90, 87, 238);"/><path class="cls-27_online-store-87" d="M347.27,275.68v77.42c0,9.67-7.83,17.51-17.5,17.53h-103.72v-94.95h121.22Z"/><path class="cls-25_online-store-87" d="M347.27,320.33v32.77c0,4.5-1.72,8.82-4.83,12.08h-112.61v-44.84h117.45Z"/><polygon class="cls-36_online-store-87 targetColor" points="191.95 105.72 154.94 145.3 319.28 145.3 352.26 105.16 191.95 105.72" style="fill: rgb(90, 87, 238);"/><polygon class="cls-31_online-store-87" points="212.25 105.56 179.09 145.06 319.58 145.21 154.94 145.21 155.93 144.27 169.18 131.86 193.64 105.55 212.25 105.56"/><polygon class="cls-32_online-store-87" points="260.91 104.99 227.98 145.06 368.47 145.21 203.82 145.21 204.82 144.27 236.15 105.55 260.91 104.99"/><polygon class="cls-30_online-store-87" points="308.05 104.99 275.12 145.06 250.96 145.21 251.96 144.27 283.29 105.55 308.05 104.99"/><polygon class="cls-28_online-store-87" points="352.5 104.99 319.57 145.06 295.42 145.21 296.42 144.27 327.74 105.55 352.5 104.99"/><path class="cls-36_online-store-87 targetColor" d="M227.58,145.29h23.57c-.9,6.51-6.91,11.05-13.42,10.15-5.27-.73-9.42-4.88-10.15-10.15Z" style="fill: rgb(90, 87, 238);"/><path class="cls-36_online-store-87 targetColor" d="M203.65,145.29h23.57c-.9,6.51-6.91,11.05-13.42,10.15-5.27-.73-9.42-4.88-10.15-10.15Z" style="fill: rgb(90, 87, 238);"/><path class="cls-36_online-store-87 targetColor" d="M298.97,145.15c-.84,6.52-6.81,11.12-13.33,10.27-5.31-.69-9.51-4.84-10.26-10.14h23.44l.14-.13Z" style="fill: rgb(90, 87, 238);"/><path class="cls-36_online-store-87 targetColor" d="M319.46,145.15c-.57,5.95-4.95,10.55-10.26,10.55s-9.63-4.56-10.24-10.42h20.42l.08-.13Z" style="fill: rgb(90, 87, 238);"/><path class="cls-36_online-store-87 targetColor" d="M179.85,145.29h23.57c-.9,6.51-6.91,11.05-13.42,10.15-5.27-.73-9.42-4.88-10.15-10.15Z" style="fill: rgb(90, 87, 238);"/><path class="cls-36_online-store-87 targetColor" d="M251.49,145.29h23.55c-.9,6.51-6.91,11.05-13.42,10.15-5.27-.73-9.42-4.88-10.15-10.15h.02Z" style="fill: rgb(90, 87, 238);"/><path class="cls-36_online-store-87 targetColor" d="M155.89,145.29h23.57c-.9,6.51-6.91,11.05-13.42,10.15-5.27-.73-9.42-4.88-10.15-10.15Z" style="fill: rgb(90, 87, 238);"/><path class="cls-29_online-store-87" d="M227.58,145.29h23.57c-.9,6.51-6.91,11.05-13.42,10.15-5.27-.73-9.42-4.88-10.15-10.15Z"/><path class="cls-9_online-store-87" d="M203.65,145.29h23.57c-.9,6.51-6.91,11.05-13.42,10.15-5.27-.73-9.42-4.88-10.15-10.15Z"/><path class="cls-6_online-store-87" d="M298.96,145.29c-.84,6.52-6.81,11.12-13.33,10.27-5.31-.69-9.51-4.84-10.26-10.14h23.45l.13-.13Z"/><path class="cls-7_online-store-87" d="M319.39,145.22c-.56,5.95-4.93,10.57-10.22,10.57s-9.59-4.57-10.21-10.42h20.35l.08-.14Z"/><path class="cls-8_online-store-87" d="M179.85,145.29h23.57c-.9,6.51-6.91,11.05-13.42,10.15-5.27-.73-9.42-4.88-10.15-10.15Z"/><path class="cls-17_online-store-87" d="M251.49,145.29h23.55c-.9,6.51-6.91,11.05-13.42,10.15-5.27-.73-9.42-4.88-10.15-10.15h.02Z"/><path class="cls-13_online-store-87" d="M155.89,145.29h23.57c-.9,6.51-6.91,11.05-13.42,10.15-5.27-.73-9.42-4.88-10.15-10.15Z"/><polygon class="cls-11_online-store-87" points="179.45 145.29 212.02 105.85 236.15 105.55 203.35 145.29 179.45 145.29"/><polygon class="cls-10_online-store-87" points="227.37 145.29 259.95 105.85 282.6 105.34 251.27 145.29 227.37 145.29"/><polygon class="cls-16_online-store-87" points="275.3 145.29 307.86 105.85 330.53 105.34 299.19 145.29 275.3 145.29"/><polygon class="cls-36_online-store-87 targetColor" points="319.31 145.36 350.91 139.1 352.62 104.99 319.31 145.36" style="fill: rgb(90, 87, 238);"/><polygon class="cls-12_online-store-87" points="319.57 145.03 351.17 138.77 352.9 104.66 319.57 145.03"/><path class="cls-19_online-store-87" d="M250.56,378.04h25.32c3.72,0,6.73,3.02,6.73,6.73h0c0,3.72-3.02,6.73-6.73,6.73h-25.32c-3.72,0-6.73-3.02-6.73-6.73h0c0-3.72,3.02-6.73,6.73-6.73Z"/><rect class="cls-15_online-store-87" x="229.77" y="279.94" width="117.49" height="34.84"/><rect class="cls-36_online-store-87 targetColor" x="238.02" y="289.86" width="22.52" height="24.46" style="fill: rgb(90, 87, 238);"/><rect class="cls-18_online-store-87" x="238.02" y="289.86" width="22.52" height="24.46"/><rect class="cls-14_online-store-87" x="267.11" y="300.46" width="22.52" height="13.86"/><rect class="cls-36_online-store-87 targetColor" x="234.82" y="289.86" width="22.52" height="24.46" style="fill: rgb(90, 87, 238);"/><rect class="cls-36_online-store-87 targetColor" x="267.57" y="301.86" width="17.5" height="12.74" style="fill: rgb(90, 87, 238);"/><rect class="cls-36_online-store-87 targetColor" x="237.52" y="339.32" width="22.52" height="24.46" style="fill: rgb(90, 87, 238);"/><rect class="cls-36_online-store-87 targetColor" x="267.07" y="351.32" width="17.5" height="12.74" style="fill: rgb(90, 87, 238);"/><circle class="cls-21_online-store-87" cx="306.08" cy="306.67" r="7.92"/><circle class="cls-36_online-store-87 targetColor" cx="303.16" cy="306.67" r="7.92" style="fill: rgb(90, 87, 238);"/><circle class="cls-5_online-store-87" cx="298.85" cy="356.35" r="7.92"/><circle class="cls-36_online-store-87 targetColor" cx="295.93" cy="356.35" r="7.92" style="fill: rgb(90, 87, 238);"/><circle class="cls-22_online-store-87" cx="331.15" cy="304.03" r="10.57"/><circle class="cls-36_online-store-87 targetColor" cx="327.25" cy="304.03" r="10.57" style="fill: rgb(90, 87, 238);"/><circle class="cls-20_online-store-87" cx="321.14" cy="353.34" r="10.57"/><circle class="cls-36_online-store-87 targetColor" cx="317.25" cy="353.34" r="10.57" style="fill: rgb(90, 87, 238);"/></g><g id="character_online-store-87"><path class="cls-36_online-store-87 targetColor" d="M279.9,241.27c-3.88,4.16-6.13,9.52-8.33,14.8l-6.2,15.02c-.41.69-.48,1.53-.2,2.28.48.6,1.19.97,1.96.99,3.15.48,6.33.79,9.52.95,16.09,1,32.22,1.37,48.37,1.11,1.94.1,3.87-.23,5.66-.96,4.45-2.25,4.76-8.44,4.01-13.35-.9-5.73-2.5-11.32-4.76-16.66-.79-2.12-1.96-4.07-3.45-5.77-3.69-3.87-9.52-4.49-14.88-4.64-10.18-.25-24.06-1.99-31.7,6.23Z" style="fill: rgb(90, 87, 238);"/><path class="cls-36_online-store-87 targetColor" d="M268.06,237.83c-.21-1.13-1.24-1.92-2.38-1.83-1.4-.06-2.81,0-4.2.15-.9.02-1.76.35-2.45.92-.5.61-.81,1.35-.89,2.13-1.13,6.13.18,12.41.68,18.62.35,4.24.38,8.73,2.67,12.3,2.1,3.21,5.68,5.13,9.52,5.1,1.59,0,3.4-.58,4.01-2.05.25-.74.32-1.53.2-2.3-.82-11.15-2.43-22.8-7.15-33.05Z" style="fill: rgb(90, 87, 238);"/><path class="cls-35_online-store-87" d="M267.25,232.37c.75-1.62,1.77-3.09,2.67-4.64.25-.39.42-.83.49-1.28.06-.49-.19-.96-.62-1.19-.89-.35-1.61.89-2.53,1.08s-1.59-.55-2.2-1.19c-2.65-2.63-5.77-4.74-9.21-6.2-.36-.21-.79-.28-1.19-.17-.37.17-.48.82-.1.94-.37.03-.74-.06-1.05-.26-.33-.14-.82-.15-.98.18s.3.82.18,1.19c-.4,0-.81-.05-1.19-.19-.4-.07-.94,0-1.01.46-.03.15-.03.31,0,.46.05.62.05,1.25,0,1.87.19,1.66.88,3.22,1.99,4.47,2.21,2.74,4.2,5.66,5.95,8.71.42,1,.99,1.93,1.68,2.76.98,1.05,4.59,2.53,5.54.71.45-.86.08-2.74.25-3.74.27-1.38.72-2.72,1.33-3.99Z"/><path class="cls-4_online-store-87" d="M316.34,257.5c.47,1.53.24,3.18-.63,4.52-1.04,1.26-2.84,1.51-4.47,1.59-7.94.42-16.04-.95-23.8.86-1.11.14-2.14.67-2.9,1.5-.66,1.17-.85,2.56-.54,3.87l.67,5.68-7.73-1.4c-.29-.04-.57-.14-.82-.29-.37-.35-.58-.84-.61-1.34-.63-2.96-.91-5.98-.82-9.01.1-3.05,1.3-5.96,3.38-8.2,1.97-1.75,4.34-2.97,6.9-3.57,5.95-1.71,12.21-2.21,18.41-2.71,2.68-.21,7.14-.81,9.44,1.01,1.92,1.55,3.06,5.22,3.53,7.5Z"/><path class="cls-35_online-store-87" d="M283.6,216.53c-.21,1.94-.14,3.91.2,5.83.85,3.42,3.3,6.23,6.58,7.53,2.38.94,5.2,1.19,6.83,3.13,1.63,1.94,1.55,4.52,3.22,6.14,1.79,1.5,4.37,1.6,6.27.25,1.83-1.38,3.05-3.41,3.41-5.68.34-2.24.47-4.51.39-6.77.04-3.02.29-6.03.75-9.02.4-2.08.65-4.18.75-6.29-.02-2.45-.49-4.87-1.39-7.14-2.01-5.29-6.15-10.07-11.64-11.47-5.15-1.27-10.52.94-13.28,5.47-1.38,2.22-1.25,4.49-1.42,7.14-.22,3.61-.45,7.23-.69,10.87Z"/><path class="cls-33_online-store-87" d="M282.04,186.09c-.99-.4-2.32-.77-2.95.08-.22.36-.32.77-.3,1.19-.02,1.51.49,2.97,1.43,4.15-.99-.07-1.96.22-2.75.82-1.11,1.09-.56,3.02.42,4.22s2.32,2.18,2.9,3.57c.31.75.38,1.58.68,2.38.23.8.9,1.39,1.73,1.52,1.07,0,1.75-1.07,2.38-1.96,3.49-4.75,10.09-5.95,15.03-2.72,4.59,3.26,5.87,9.41,6.78,14.97.46.33.74-.56.92-1.09.4-1.19,2.26-1.08,2.93-.07.57,1.1.46,2.42-.26,3.43-.64,1.02-1.58,1.83-2.28,2.82-.21.23-.31.54-.3.84.06.26.21.49.42.65.57.57,1.17,1.1,1.81,1.59.47.47,1.12.71,1.78.67.45-.13.84-.4,1.12-.77,2.38-2.67,3.31-6.37,3.82-9.92.51-3.56.48-7.57-2.28-9.71-.55-.42-1.19-.73-1.69-1.19-.89-.88-1.62-1.91-2.17-3.05-2.97-5-7.55-8.84-12.98-10.9-2.45-1.15-5.18-1.53-7.85-1.09-2.74.82-5.68.67-8.32-.43Z"/><path class="cls-35_online-store-87" d="M267.78,273.25c-.42.52-.8,1.32-.33,1.8.33.23.74.32,1.13.25l14.21-.84c.23,0,.46-.04.68-.12.71-.32.76-1.28.71-2.07l-.25-3.66c-.08-1.32.19-1.73-1.09-1.9-1.93-.09-3.86.18-5.7.8-3.63.92-6.9,2.93-9.35,5.76Z"/></g><g id="icons_online-store-87"><circle class="cls-36_online-store-87 targetColor" cx="183.67" cy="208.46" r="31.28" style="fill: rgb(90, 87, 238);"/><circle class="cls-2_online-store-87" cx="178.11" cy="208.46" r="31.28"/><circle class="cls-36_online-store-87 targetColor" cx="147.77" cy="274.86" r="27.7" style="fill: rgb(90, 87, 238);"/><circle class="cls-3_online-store-87" cx="142.85" cy="274.86" r="27.7"/><polygon class="cls-34_online-store-87" points="195.76 226.48 165.74 226.48 170.83 199.33 191.4 199.33 195.76 226.48"/><path class="cls-34_online-store-87" d="M187.89,201.73h-12.87v-1.19c0-3.55,2.88-6.44,6.44-6.44s6.44,2.88,6.44,6.44v1.19ZM177.47,199.41h7.92c-.64-2.19-2.93-3.44-5.12-2.8-1.35.4-2.41,1.45-2.8,2.8Z"/><path class="cls-34_online-store-87" d="M144.36,269.71c0,5.88-3.08,8.78-6.69,8.78s-6.46-2.78-6.51-8.33c-.05-5.54,3.05-8.7,6.72-8.7,3.89-.06,6.47,2.94,6.47,8.25ZM134.16,269.97c-.08,3.57,1.25,6.26,3.57,6.26s3.57-2.67,3.57-6.34c0-3.39-.99-6.21-3.57-6.21-2.32,0-3.57,2.83-3.57,6.29ZM137.42,290.2l16.36-28.78h2.38l-16.35,28.77h-2.39ZM162.48,281.25c0,5.87-3.09,8.78-6.64,8.78s-6.47-2.78-6.51-8.33c-.04-5.54,3.03-8.73,6.72-8.73,3.89-.04,6.42,2.95,6.42,8.27h0ZM152.28,281.5c0,3.57,1.33,6.26,3.64,6.26,2.49,0,3.57-2.65,3.57-6.34,0-3.38-.99-6.21-3.57-6.21-2.36-.01-3.64,2.77-3.64,6.28h0Z"/></g></svg>