<svg id="_0520_data_analyzing" xmlns="http://www.w3.org/2000/svg" xmlns:xlink="http://www.w3.org/1999/xlink" viewBox="0 0 500 500" data-imageid="report-analysis-6-48" imageName="Report Analysis 6" class="illustrations_image" style="width: 188px;"><defs><style>.cls-1_report-analysis-6-48{fill:url(#linear-gradient);}.cls-1_report-analysis-6-48,.cls-2_report-analysis-6-48,.cls-3_report-analysis-6-48,.cls-4_report-analysis-6-48,.cls-5_report-analysis-6-48,.cls-6_report-analysis-6-48,.cls-7_report-analysis-6-48,.cls-8_report-analysis-6-48,.cls-9_report-analysis-6-48,.cls-10_report-analysis-6-48,.cls-11_report-analysis-6-48,.cls-12_report-analysis-6-48{stroke-width:0px;}.cls-2_report-analysis-6-48{isolation:isolate;opacity:.18;}.cls-2_report-analysis-6-48,.cls-12_report-analysis-6-48{fill:#68e1fd;}.cls-13_report-analysis-6-48{opacity:.41;}.cls-14_report-analysis-6-48{opacity:.5;}.cls-3_report-analysis-6-48{fill:url(#linear-gradient-4-report-analysis-6-48);}.cls-4_report-analysis-6-48{fill:url(#linear-gradient-2-report-analysis-6-48);}.cls-5_report-analysis-6-48{fill:url(#linear-gradient-3-report-analysis-6-48);}.cls-6_report-analysis-6-48{fill:url(#linear-gradient-5-report-analysis-6-48);}.cls-7_report-analysis-6-48{fill:url(#linear-gradient-6-report-analysis-6-48);}.cls-8_report-analysis-6-48{fill:#78433b;}.cls-9_report-analysis-6-48{fill:#473f47;}.cls-10_report-analysis-6-48{fill:#c14834;}.cls-11_report-analysis-6-48{fill:#fff;}</style><linearGradient id="linear-gradient-report-analysis-6-48" x1="781.41" y1="2480.07" x2="721.52" y2="4043.32" gradientTransform="translate(-487.88 3337.07) scale(1 -1)" gradientUnits="userSpaceOnUse"><stop offset="0" stop-color="#231f20"/><stop offset=".08" stop-color="#231f20" stop-opacity=".69"/><stop offset=".21" stop-color="#231f20" stop-opacity=".32"/><stop offset="1" stop-color="#231f20" stop-opacity="0"/></linearGradient><linearGradient id="linear-gradient-2-report-analysis-6-48" x1="684.97" y1="3180.94" x2="934.27" y2="3004.24" gradientTransform="translate(-471 3343.65) scale(1 -1)" xlink:href="#linear-gradient-report-analysis-6-48"/><linearGradient id="linear-gradient-3-report-analysis-6-48" x1="-2322.92" y1="2026.52" x2="-2095.69" y2="2036.58" gradientTransform="translate(-751.75 3201.9) rotate(152.16)" xlink:href="#linear-gradient-report-analysis-6-48"/><linearGradient id="linear-gradient-4-report-analysis-6-48" x1="800.84" y1="3157.69" x2="763.6" y2="3085.62" xlink:href="#linear-gradient-report-analysis-6-48"/><linearGradient id="linear-gradient-5-report-analysis-6-48" x1="814.27" y1="3141.09" x2="715.64" y2="3033.55" xlink:href="#linear-gradient-report-analysis-6-48"/><linearGradient id="linear-gradient-6-report-analysis-6-48" x1="-1927.86" y1="3181.87" x2="-1706.08" y2="2923.71" gradientTransform="translate(-1584.11 3337.07) rotate(-180)" xlink:href="#linear-gradient-report-analysis-6-48"/></defs><g id="background_report-analysis-6-48"><path class="cls-2_report-analysis-6-48 targetColor" d="M92.5,386.48c-16.29-2.67-31.62-9.47-44.54-19.74-15.23-11.97-31.74-28.09-31.23-48.1.54-21.21,8.47-41.64,17.05-60.79,11.61-25.79,27.73-53.01,23.45-81.76-4.28-28.75,1.5-63.09,16.66-87.53,23.75-38.38,65.81-47.65,107.69-48.52,27.64-.57,56.15,1.08,81.34,12.47,26.5,11.97,47.86,34.07,74.79,44.36,17.95,6.76,37.6,8.08,55.16,15.7,22.11,9.6,39.13,28.63,50.2,50.05,11.07,21.42,16.66,45.2,20.94,68.8,7,39.91-9.63,89.74-33.62,122.44-15.94,21.72-42.72,46.88-70.21,41.61-140-26.68-113.11,15.97-267.67-9Z" style="fill: rgb(90, 87, 238);"/><path class="cls-1_report-analysis-6-48" d="M146.61,373.41h185.47c-.3,1.68-.87,3.2-1.2,4.88,19.1.4,38.2-.79,57.11-3.53,4.11-.4,8.15-1.41,11.97-2.99,1.88-.9,3.92-2.99,2.99-4.76-.73-.93-1.81-1.53-2.99-1.65-11.09-2.21-22.26-4.05-33.5-5.5-3.84-.16-7.58-1.29-10.86-3.29-4.4-3.23-5.77-9.24-5.8-14.72.49-5.44.49-10.92,0-16.36-2.54-13.88-11.97-26.44-5.62-39.1,5.68-11.55,16.12-20.67,19.53-33.09,2.36-8.62,1.02-17.74-.36-26.53l-4.49-29.11c-.54-6.25-2.26-12.34-5.09-17.95-.93-1.86-2.26-3.49-3.89-4.79-1.85-1.23-2.63-.45-4.43-1.08-3.92-1.38-7.12-4.94-11.34-1.47.71-10.05.72-20.13.03-30.18.06-4.99-.96-9.92-2.99-14.48-1.71-2.89-3.82-5.52-6.28-7.81-3.99-3.99-8.04-7.81-12.15-11.46-2.94-2.75-6.12-5.24-9.51-7.42-10.74-6.76-21.45-6.55-33.41-4.85-13.13,1.91-27.25.57-40.41,0s-26.92-1.71-40.41-1.59c-6.66.03-13.31.42-19.92,1.17-1.85.21-18.64,2.03-18.76,3.53-2.39,27.46,9.33,53.85,18.28,79.96,11.4,33.2,18.55,68.35,16,103.41-2.54,35.06-13.22,65.81-37.96,90.73Z"/></g><g id="data_report-analysis-6-48"><polygon class="cls-11_report-analysis-6-48" points="316.11 366.95 139.58 366.95 139.58 100.59 278.95 100.59 316.11 139.06 316.11 366.95"/><polygon class="cls-11_report-analysis-6-48" points="278.95 100.59 316.11 139.06 279.19 139.06 278.95 100.59"/><polygon class="cls-12_report-analysis-6-48 targetColor" points="278.95 100.59 316.11 139.06 279.19 139.06 278.95 100.59" style="fill: rgb(90, 87, 238);"/><g class="cls-13_report-analysis-6-48"><rect class="cls-12_report-analysis-6-48 targetColor" x="159.66" y="238.73" width="27.76" height="24.17" style="fill: rgb(90, 87, 238);"/></g><rect class="cls-12_report-analysis-6-48 targetColor" x="187.18" y="219.92" width="27.76" height="42.99" style="fill: rgb(90, 87, 238);"/><g class="cls-14_report-analysis-6-48"><rect class="cls-12_report-analysis-6-48 targetColor" x="214.7" y="200.08" width="27.76" height="62.82" style="fill: rgb(90, 87, 238);"/></g><rect class="cls-12_report-analysis-6-48 targetColor" x="242.25" y="180.76" width="27.76" height="82.14" style="fill: rgb(90, 87, 238);"/><rect class="cls-12_report-analysis-6-48 targetColor" x="269.77" y="161.29" width="27.76" height="101.62" style="fill: rgb(90, 87, 238);"/><rect class="cls-4_report-analysis-6-48" x="269.77" y="161.29" width="27.76" height="101.62"/><rect class="cls-12_report-analysis-6-48 targetColor" x="165.55" y="282.95" width="127.28" height="7.99" style="fill: rgb(90, 87, 238);"/><rect class="cls-12_report-analysis-6-48 targetColor" x="165.55" y="303.08" width="127.28" height="7.99" style="fill: rgb(90, 87, 238);"/><rect class="cls-12_report-analysis-6-48 targetColor" x="165.55" y="323.24" width="127.28" height="7.99" style="fill: rgb(90, 87, 238);"/><rect class="cls-12_report-analysis-6-48 targetColor" x="165.55" y="343.37" width="127.28" height="7.99" style="fill: rgb(90, 87, 238);"/></g><g id="character_1_report-analysis-6-48"><path class="cls-10_report-analysis-6-48" d="M388.65,351.18c-.75,2.12-1.97,4.49-.87,6.46.09.2.25.36.45.45.3.13.63.13.93,0,4.76-1.85,7.48-6.79,9.48-11.52.62-1.13.83-2.44.6-3.71-.54-1.2-1.47-2.19-2.63-2.81-1.7-1.26-3.29-2.66-4.76-4.19.42.48-.84,3.56-1.05,4.1-.62,1.09-1.13,2.25-1.53,3.44.01,1.13.08,2.26.21,3.38-.05,1.5-.33,2.98-.84,4.4Z"/><path class="cls-10_report-analysis-6-48" d="M337.79,367.27c-1.29,1.41-2.99,2.66-3.23,4.52-.11.33-.11.69,0,1.02.42.84,1.65.78,2.54.51,3.53-1.24,6.82-3.08,9.72-5.44.4-.27.75-.61,1.02-1.02.21-.62.21-1.29,0-1.91l-.78-4.67c0-.15-.07-.29-.18-.39-.12-.06-.27-.06-.39,0-1.21-.12-2.44-.12-3.65,0-1.65,0-1.74.18-2.06,1.71-.51,2.11-1.54,4.07-2.99,5.68Z"/><path class="cls-12_report-analysis-6-48 targetColor" d="M348.47,370.8c.01.23-.04.46-.15.66-.21.24-.49.4-.81.45-1.58.56-3.09,1.3-4.52,2.18-3.03,1.51-6.17,2.8-9.39,3.86-1.32.68-2.87.8-4.28.33-.17-.07-.31-.18-.42-.33-.07-.25-.07-.52,0-.78.48-2.25,1.57-4.32,3.17-5.98.56-.68,1.24-1.25,2-1.68.78-.44,1.71-.5,2.54-.18.87.39,1.47,1.35,2.39,1.62.98.2,2.01-.03,2.81-.63,1.05-.56,2.05-1.21,2.99-1.94.69-.57,1.53-1.68,2.39-1.88,1.88-.42,1.32,3.14,1.26,4.31Z" style="fill: rgb(90, 87, 238);"/><path class="cls-12_report-analysis-6-48 targetColor" d="M401.54,344.48c.17.22.27.48.3.75-.06.36-.24.68-.51.93-1.16,1.54-2.16,3.19-2.99,4.94-1.91,3.37-4.06,6.6-6.43,9.66-.85,1.47-2.25,2.54-3.89,2.99-.2.05-.4.05-.6,0-.26-.16-.45-.4-.54-.69-.96-2.44-1.23-5.1-.78-7.69.07-1.04.34-2.06.81-2.99.47-.91,1.31-1.56,2.3-1.79,1.11-.18,2.24.33,3.32,0,1.05-.47,1.87-1.34,2.27-2.42.59-1.19,1.08-2.42,1.47-3.68.16-1.15.52-2.27,1.08-3.29,1.7-1.53,3.5,2.15,4.19,3.29Z" style="fill: rgb(90, 87, 238);"/><path class="cls-12_report-analysis-6-48 targetColor" d="M378.63,268.71c.94,6.81-.43,13.74-3.89,19.68-2.6,4.37-2.99,9.6-5.47,13.79-.57.82-.96,1.76-1.14,2.75.13,1.76,1,3.37,2.39,4.46l15.91,16.6c2.89,2.51,5.04,5.76,6.22,9.39,1.1,3.83-1.09,7.83-4.91,8.97l-34.61-20.37c-5.71-6.78-8.72-15.43-8.47-24.29.45-5.98,12.62-35.9,12.62-35.9,4.1-3.33,8.53-6.23,13.22-8.68,2.6-1.17,2.72-.48,4.22,2.06,1.11,1.89,2,3.9,2.66,5.98.57,1.8.98,3.66,1.23,5.53Z" style="fill: rgb(90, 87, 238);"/><path class="cls-12_report-analysis-6-48 targetColor" d="M357.3,263.83s-12.77,29.91-12.62,35.9c.36,16.57,8.47,24.29,8.47,24.29-.86,11.63-1.71,23.27-2.54,34.94-3.77,2.06-9.36,3.74-11.55,0-.56-1.07-.86-2.26-.9-3.47-1.26-12.42-2.53-24.83-3.83-37.21-1.06-7.35-1.18-14.81-.36-22.2v-.63h0s.39-1.85.9-3.86h0c1.47-5.8,4.64-16.54,9.57-22.73,4.44-.95,8.72-2.55,12.68-4.76l.18-.27Z" style="fill: rgb(90, 87, 238);"/><path class="cls-5_report-analysis-6-48" d="M357.3,263.83s-12.77,29.91-12.62,35.9c.36,16.57,8.47,24.29,8.47,24.29-.86,11.63-1.71,23.27-2.54,34.94-3.77,2.06-9.36,3.74-11.55,0-.56-1.07-.86-2.26-.9-3.47-1.26-12.42-2.53-24.83-3.83-37.21-1.06-7.35-1.18-14.81-.36-22.2v-.63h0s.39-1.85.9-3.86h0c1.47-5.8,4.64-16.54,9.57-22.73,4.44-.95,8.72-2.55,12.68-4.76l.18-.27Z"/><path class="cls-9_report-analysis-6-48" d="M372.76,193.77c-2.65,2.56-5.77,4.59-9.18,5.98-.81-2.99.9-4.19.9-4.19,1.76.15,4.1-4.19,3.35-5.53-.75-1.35-2.24-1.08-2.99-.36-1.81-1.41-2.95-3.52-3.14-5.8,0-1.32,2.18-5.09-2.21-6.7-3.48-.91-7.14-.91-10.62,0-.3,0,0-2.51,0-2.66.44-1.32,1.28-2.47,2.39-3.29,1.51-.57,3.12-.81,4.73-.69,2.24,0,4.52-.21,6.76-.21,2.29-.14,4.59.19,6.76.96,4.19,2.26,6.91,6.53,7.21,11.28.05,1.23.34,2.44.84,3.56.57,1.11,1.65,1.91,2.21,2.99.96,1.97.21,4.4.9,6.46,1.2.25,2.35.73,3.38,1.41,1.03.72,1.57,1.96,1.41,3.2.83.61,1.46,1.44,1.82,2.39.31.96-.22,1.99-1.18,2.3-.05.01-.09.03-.14.04.94.61,1.77,1.35,2.48,2.21.64.86.84,1.97.54,2.99-.67,1.21-1.81,2.09-3.14,2.45,1.13.36,2.16.99,2.99,1.82.79.92.79,2.28,0,3.2,1.48-.48,3.06.33,3.54,1.8.11.33.15.67.13,1.01,2.28-.69,4.68.6,5.37,2.88.06.2.11.41.14.62-.04,1.58-.53,3.12-1.41,4.43-.57,1.11-1.29,2.3-2.51,2.6.6.9,0,2.12-.87,2.99s-1.17,2.3-2.06,3.29c-1.13,1-2.47,1.75-3.92,2.18-3.01,1.02-6.23,1.28-9.36.75-4.19-.48-8.08-2.39-11.01-5.41-4.25-4.73-4.82-11.58-5.98-17.8-.07-.77-.39-1.49-.9-2.06-1.23-1.17-3.23-.24-4.94-.27-2.99,0-4.91-3.29-5-6.22.26-2.93.84-5.82,1.74-8.62.87-2.85.18-5.96-1.82-8.17-.84-.72-1.88-1.17-2.75-1.79-3.98-2.99-3.74-9.42-.36-12.95,3.7-3.34,8.79-4.67,13.64-3.56,3.86.69,12.59,2.84,14.39,6.4,1.79,3.56.15,10.92-2.12,14.09Z"/><path class="cls-10_report-analysis-6-48" d="M343.3,212.26l-18.64,19.2-24.8-13.07c-3.06-1.88-6.61-2.82-10.2-2.72-.36,0-.84.21-.78.57s.51.39.57.69-.33.51-.66.6l-5.98,1.35c-.87.18-1.91.6-1.97,1.5.06.6.39,1.14.9,1.47,4.18,2.99,9.36,4.24,14.45,3.47.5-.06,1-.06,1.5,0,.48.11.93.31,1.35.57,1.91,1.08,3.77,2.21,5.56,3.47,4.85,3.44,9.21,7.54,14.15,10.86,1,.77,2.19,1.27,3.44,1.44,1.11-.03,2.2-.3,3.2-.78,7.12-2.99,14.42-5.98,19.83-11.31.47-.44.86-.97,1.14-1.56.21-.59.31-1.2.3-1.82v-7.81c.03-1.19-.23-2.37-.75-3.44-.57-1.09-1.8-1.65-2.99-1.38"/><path class="cls-8_report-analysis-6-48" d="M331.51,232.66c-.6.47-1.27.87-1.97,1.17-1.57.49-3.22.65-4.85.48-2.47-.06-4.94.09-7.39.45-.61.03-1.21.22-1.74.54-.53.33-.79.98-.63,1.59.17.32.42.6.72.81,1.85,1.78,4.14,3.02,6.64,3.59,3.07.03,6.08-.94,8.56-2.75l5.44-3.2c.82-.4,1.54-.98,2.09-1.71.75-1.17.93-4.46-.93-4.79s-4.76,2.81-5.95,3.83Z"/><path class="cls-11_report-analysis-6-48" d="M346.11,207.44c.36-.12.73-.2,1.11-.24,2-.02,4,.1,5.98.36,2.66,0,5.32.18,7.96,0,5.09,0,13.4-.66,17.95,4.85,4.55,5.5,2.3,13.4.3,19.32-1.02,2.99-2.99,5.53-3.89,8.41-.84,3.85-.93,7.82-.27,11.7.04.85.22,1.69.51,2.48.69,1.65,2.27,2.99,2.75,4.55.35,1.87-.33,3.78-1.79,5-1.46,1.17-3.12,2.05-4.91,2.6-2.12.84-4.25,1.65-6.43,2.3-7.05,2.02-14.45,2.46-21.69,1.29-1.02.03-1.88-.78-1.91-1.8,0-.29.05-.57.17-.83.7-5.57.41-11.22-.84-16.69-1.11-4.91-3.98-8.68-4.91-13.64-.93-3.55-.93-7.28,0-10.83.18-.45.84-.78.9-1.26s-.75-1.71-1.02-2.27c-.88-1.86-1.58-3.81-2.09-5.8-.1-.31-.1-.65,0-.96.13-.24.31-.44.54-.6,2.06-1.68,4.16-3.35,6.37-4.85,1.59-1.25,3.34-2.29,5.21-3.08Z"/><path class="cls-10_report-analysis-6-48" d="M363.64,194.79c-1.05,3.35-5.44,9.27-10.5,7.9,1.21,2.19,1.06,4.87-.39,6.91,0,0,1.65,4.16,12.68-2,0,0-2.99-.27-2.15-6.4.22-2.14.96-4.2,2.15-5.98-.42.43-1.1.43-1.52.02-.12-.12-.22-.27-.27-.44Z"/><path class="cls-8_report-analysis-6-48" d="M363.13,196.46s-2.42,10.32-6.52,9.9-3.86-6.61-3.86-6.61l10.38-3.29Z"/><path class="cls-9_report-analysis-6-48" d="M352.27,171.16s-6.7.39-8.71,10.11c-1.17,3.93,1.07,8.06,4.99,9.23.87.26,1.79.36,2.69.29l5.98-16.84-4.97-2.78Z"/><path class="cls-10_report-analysis-6-48" d="M356.73,203.17c-5.98.51-9.75-5.15-10.44-12.56v-2.48c0-2.41.27-4.81.81-7.15,2.66-11.37,18.85-6.82,18.85-6.82,12.56,5.71,1.35,28.15-9.21,29.02Z"/><path class="cls-9_report-analysis-6-48" d="M352.39,173.91c1.59,5.47,3.68,13.28,8.97,16.3.73.48,1.58.74,2.45.75.84-.15.75-.81,1.38-1.38.42-.43,1.07-.55,1.62-.3.45.35.71.89.69,1.47-.02,1.36-.73,2.63-1.88,3.35-.53.24-1.04.53-1.53.87-.54.52-.86,1.23-.9,1.97-.19,2.06.84,4.03,2.63,5.06.12.03.24.03.36,0,.16-.03.3-.11.39-.24l2.39-2.18c1.11-.98,2.11-2.07,2.99-3.26,1.09-1.63,1.69-3.54,1.71-5.5,0-.9-.36-1.79-.36-2.66.17-1.12.47-2.21.9-3.26.55-1.35.82-2.79.81-4.25-.48-2.79-2.35-5.15-4.97-6.25-4.18-1.73-8.7-2.51-13.22-2.27-.89-.06-1.79.06-2.63.36-.75.36-1.08,1.17-1.79,1.44Z"/><path class="cls-10_report-analysis-6-48" d="M363.13,242.98l4.64,10.2c6.04-7.76,10.7-16.5,13.76-25.85,3.32-11.97-2.57-14.96-2.57-14.96-4.49-1.65-7.54,4.76-11.97,17.71-2.42,7.24-3.86,12.89-3.86,12.89Z"/><path class="cls-11_report-analysis-6-48" d="M383.32,216.57c.71,2.17,1.19,4.4,1.44,6.67l.42,2.99c.18.63.18,1.29,0,1.91-.51,1.08-2.54.63-3.56.81l-5.41.84c-3.62.57-7.21,1.11-10.83,1.62-.25-1.85-.25-3.72,0-5.56.33-1.74,1.08-3.35,1.5-5.09s.48-2.99.84-4.22c.77-2.92,2.51-5.5,4.94-7.3,3.83-2.78,9.39,3.95,10.56,6.97.03.12.07.24.12.36Z"/><path class="cls-3_report-analysis-6-48" d="M278.51,208.73s10.11-13.43,23.21-5.44c13.1,7.99,3.83,24.17,3.83,24.17l10.02-11.31s-.21-14.45-7.69-19.2c-7.48-4.76-20.94-4.37-20.94-4.37l-8.41,11.61-.03,4.55Z"/><path class="cls-6_report-analysis-6-48" d="M271.12,213.64c-2.79,8.87,1.37,18.44,9.75,22.47,7.02,3.52,15.2,3.91,22.53,1.08l10.38,10.44,2.24,3.77-.36-13.91-7.78-11.55s-26.92,18.52-32.91-16.12c-.09.06-2.84-.84-3.86,3.83Z"/><path class="cls-12_report-analysis-6-48 targetColor" d="M330.5,244.99c1.25,1.28,1.25,3.33,0,4.61h0c-1.28,1.25-3.33,1.25-4.61,0l-20.37-19.53c-1.25-1.27-1.25-3.31,0-4.58h0c1.25-1.27,3.3-1.29,4.57-.04.01.01.03.03.04.04l20.37,19.5Z" style="fill: rgb(90, 87, 238);"/><path class="cls-12_report-analysis-6-48 targetColor" d="M293.58,191.17c-12.41-.02-22.48,10.03-22.5,22.44-.02,12.41,10.03,22.48,22.44,22.5,12.41.02,22.48-10.03,22.5-22.44,0,0,0-.02,0-.03,0-12.4-10.04-22.45-22.44-22.47ZM293.58,230.42c-9.27,0-16.78-7.51-16.78-16.78s7.51-16.78,16.78-16.78,16.78,7.51,16.78,16.78c-.02,9.26-7.52,16.77-16.78,16.78Z" style="fill: rgb(90, 87, 238);"/><path class="cls-7_report-analysis-6-48" d="M293.58,191.17c-12.41-.02-22.48,10.03-22.5,22.44-.02,12.41,10.03,22.48,22.44,22.5,12.41.02,22.48-10.03,22.5-22.44,0,0,0-.02,0-.03,0-12.4-10.04-22.45-22.44-22.47ZM293.58,230.42c-9.27,0-16.78-7.51-16.78-16.78s7.51-16.78,16.78-16.78,16.78,7.51,16.78,16.78c-.02,9.26-7.52,16.77-16.78,16.78Z"/><path class="cls-12_report-analysis-6-48 targetColor" d="M295.26,189.55c-12.41,0-22.47,10.06-22.47,22.47s10.06,22.47,22.47,22.47,22.47-10.06,22.47-22.47h0c0-12.41-10.06-22.47-22.47-22.47ZM295.26,228.8c-9.28.02-16.83-7.5-16.84-16.78-.02-9.28,7.5-16.83,16.78-16.84,9.28-.02,16.83,7.5,16.84,16.78,0,.02,0,.04,0,.06,0,9.27-7.51,16.78-16.78,16.78h0Z" style="fill: rgb(90, 87, 238);"/><path class="cls-10_report-analysis-6-48" d="M367.77,253.18s.18-8.29-3.86-9.93-32.31-5.98-32.31-5.98l-2.63,2.99s27.73,15.97,38.8,12.92Z"/><path class="cls-10_report-analysis-6-48" d="M328.58,236.52c-.67-.13-1.33-.31-1.97-.54l-5.35-1.91h-.75c-.06.13-.06.28,0,.42,0,.81.75,1.41,1.26,2.03,0,0,.21.33.15.51s-.36.3-.63.3c-2.68.16-5.37.16-8.05,0-.34-.09-.7-.09-1.05,0-.34.13-.54.48-.48.84.1.21.27.38.48.48.66.42,1.41.69,2.18.81-.73.3-1.51.45-2.3.45.08.53.41.98.9,1.2.49.18,1,.29,1.53.33-.56.28-1.17.44-1.79.48-.15.42.24.81.6,1.08,1.92,1.34,4.21,2.05,6.55,2.03,2.42.5,4.91.5,7.33,0,1.76-1.06,3.59-2,5.47-2.81.34-.04.67-.15.96-.33.27-.22.46-.53.54-.87.78-2.57-.93-3.71-3.2-4.16l-2.36-.33Z"/></g></svg>