<svg id="_0210_creative_process" xmlns="http://www.w3.org/2000/svg" xmlns:xlink="http://www.w3.org/1999/xlink" viewBox="0 0 500 500" data-imageid="creative-process-46" imageName="Creative Process" class="illustrations_image" style="width: 188px;"><defs><style>.cls-1_creative-process-46{fill:url(#linear-gradient);}.cls-1_creative-process-46,.cls-2_creative-process-46,.cls-3_creative-process-46,.cls-4_creative-process-46,.cls-5_creative-process-46,.cls-6_creative-process-46,.cls-7_creative-process-46,.cls-8_creative-process-46,.cls-9_creative-process-46,.cls-10_creative-process-46,.cls-11_creative-process-46,.cls-12_creative-process-46,.cls-13_creative-process-46,.cls-14_creative-process-46{stroke-width:0px;}.cls-2_creative-process-46{fill:url(#linear-gradient-4-creative-process-46);}.cls-3_creative-process-46{fill:url(#linear-gradient-2-creative-process-46);}.cls-4_creative-process-46{fill:url(#linear-gradient-3-creative-process-46);}.cls-5_creative-process-46{fill:url(#linear-gradient-8-creative-process-46);}.cls-6_creative-process-46{fill:url(#linear-gradient-7-creative-process-46);}.cls-7_creative-process-46{fill:url(#linear-gradient-5-creative-process-46);}.cls-8_creative-process-46{fill:url(#linear-gradient-6-creative-process-46);}.cls-9_creative-process-46{isolation:isolate;opacity:.24;}.cls-9_creative-process-46,.cls-14_creative-process-46{fill:#68e1fd;}.cls-10_creative-process-46{fill:#231f20;}.cls-11_creative-process-46{fill:#fff;}.cls-12_creative-process-46{fill:#ffb4a3;}.cls-13_creative-process-46{fill:#efd2bb;}</style><linearGradient id="linear-gradient-creative-process-46" x1="595.39" y1="1566.52" x2="766.99" y2="1566.52" gradientTransform="translate(-469.22 1840.43) scale(1 -1)" gradientUnits="userSpaceOnUse"><stop offset="0" stop-color="#231f20" stop-opacity="0"/><stop offset="1" stop-color="#231f20"/></linearGradient><linearGradient id="linear-gradient-2-creative-process-46" x1="132.94" y1="2527.42" x2="221.01" y2="2527.42" gradientTransform="translate(-766.19 2573.03) rotate(21.7) scale(1 -1)" xlink:href="#linear-gradient-creative-process-46"/><linearGradient id="linear-gradient-3-creative-process-46" x1="554.76" y1="1976.55" x2="572.94" y2="2029.33" gradientTransform="translate(-541.53 2092.54) rotate(7.09) scale(1 -1)" xlink:href="#linear-gradient-creative-process-46"/><linearGradient id="linear-gradient-4-creative-process-46" x1="615.34" y1="1949.95" x2="661.33" y2="1906.92" gradientTransform="translate(-541.53 2092.54) rotate(7.09) scale(1 -1)" xlink:href="#linear-gradient-creative-process-46"/><linearGradient id="linear-gradient-5-creative-process-46" x1="690.18" y1="1691.32" x2="709.86" y2="1691.32" xlink:href="#linear-gradient-creative-process-46"/><linearGradient id="linear-gradient-6-creative-process-46" x1="676.87" y1="1739.91" x2="730.22" y2="1739.91" gradientTransform="translate(-469.22 1840.43) scale(1 -1)" gradientUnits="userSpaceOnUse"><stop offset="0" stop-color="#fff" stop-opacity="0"/><stop offset=".95" stop-color="#fff"/></linearGradient><linearGradient id="linear-gradient-7-creative-process-46" x1="700.23" y1="1714.97" x2="708.85" y2="1674.39" xlink:href="#linear-gradient-creative-process-46"/><linearGradient id="linear-gradient-8-creative-process-46" x1="695.65" y1="1694.79" x2="725.2" y2="1730.18" xlink:href="#linear-gradient-creative-process-46"/></defs><path id="background_creative-process-46" class="cls-9_creative-process-46 targetColor" d="M165.58,63.74c-15.76,7.11-30.9,16.42-42.06,29.6-15.44,18.25-22.31,42.7-38.51,60.27-20.71,22.47-54.75,31.69-69.79,58.26-5.73,10.15-8.03,21.88-9.01,33.49-3.77,44.16,13.33,92.45,51.37,115.21,15.11,9.03,32.51,13.63,47.79,22.37,13.57,7.76,25.39,18.74,39.98,24.36,25.74,9.9,54.89,1.22,79.52-11.18,24.63-12.4,47.83-28.64,74.66-35.06,34.64-8.24,70.75.96,106.31,1.37,35.56.41,76.6-12.73,88.54-46.25,3.74-10.52,4.13-21.88,4.48-33.04.65-20.9,1.19-42.49-6.63-61.9-10.62-26.61-35.75-45.92-44.28-73.3-4.5-14.45-4.17-30.63-12.07-43.55-10.39-17-31.96-23.36-51.81-25.06-31.53-2.72-65.32,2.32-93.18-12.72-40.05-21.63-83.65-21.69-125.29-2.89Z" style="fill: rgb(90, 87, 238);"/><g id="gear_creative-process-46"><path class="cls-1_creative-process-46" d="M282.97,273.23c.02-.49-.02-.99-.13-1.47h0l14.92-2.38-3.96-32.43-19.51,3.04c-3.7-6.54-8.49-12.4-14.15-17.33h-.04l10.01-14.78v-8.42l-26.34-10.91-12.92,18.92c-5.03-1.24-10.2-1.86-15.38-1.84-.41-.02-.82.02-1.22.12l-5.85-20.49-31.69-.56v8.38l5.9,21.08c-7.32,4.03-13.84,9.38-19.22,15.77l-16.61-10.79-18.75,18.36v8.39l21.19,13.82c-.89,4.45-1.34,8.98-1.35,13.52-.04,1.57.04,3.13.25,4.69l-21.97-2.95v8.38l6.63,31.95,25.42-6.18h0c2.75,4.48,6.02,8.62,9.74,12.34l-11.35,12.56v8.4l28.14,16.58,11.49-21h0c5.89,1.77,11.98,2.72,18.13,2.84h0l8.02,22.28,31.1-9.93v-8.39l-7.07-11.5h0c5.67-2.92,10.88-6.64,15.48-11.05l15.33,9.58,18.36-26.99v-8.38l-16.17-1.83c2.37-6.89,3.57-14.12,3.56-21.41ZM215.49,306.54c-18.4.08-33.38-14.77-33.46-33.16-.08-18.4,14.77-33.38,33.16-33.46,18.4-.08,33.38,14.77,33.46,33.16,0,.05,0,.1,0,.15,0,18.34-14.83,33.22-33.16,33.31h0Z"/><path class="cls-14_creative-process-46 targetColor" d="M282.97,264.85c.02-.49-.02-.99-.13-1.47h0l14.92-2.38-3.96-32.43-19.51,3.04c-3.7-6.54-8.49-12.4-14.15-17.34h-.04l10.01-14.82-26.34-19.29-12.92,18.92c-5.03-1.24-10.2-1.86-15.38-1.84-.41-.02-.82.02-1.22.13l-5.85-20.49-31.69,7.81,5.9,21.08c-7.31,4.04-13.82,9.39-19.19,15.79l-16.64-10.79-18.75,26.73,21.19,13.82c-.89,4.45-1.34,8.98-1.35,13.52-.04,1.57.04,3.13.25,4.69l-21.97,5.42,6.63,31.96,25.42-6.18h0c2.75,4.48,6.02,8.62,9.74,12.34l-11.35,20.94,28.11,16.6,11.49-21h0c5.89,1.77,11.98,2.72,18.13,2.84h0l8.02,22.27,31.1-9.93-7.07-19.9h0c5.67-2.92,10.88-6.64,15.48-11.05l15.33,9.58,18.32-27.02-16.17-10.21c2.39-6.86,3.62-14.08,3.63-21.35ZM215.49,298.16c-18.4.08-33.38-14.77-33.46-33.16-.08-18.4,14.77-33.38,33.16-33.46,18.4-.08,33.38,14.77,33.46,33.16,0,.05,0,.1,0,.15-.01,18.33-14.83,33.22-33.16,33.31Z" style="fill: rgb(90, 87, 238);"/><path class="cls-3_creative-process-46" d="M367.64,301.07c.1-.24.17-.48.21-.74h0l7.57,1.67,4.22-16.21-9.88-2.21c-.53-3.82-1.71-7.52-3.48-10.94h0l7.57-5.16,1.58-4-10.52-10.23-9.73,6.63c-2.17-1.54-4.52-2.81-6.99-3.78-.19-.09-.4-.14-.6-.17l1.07-10.88-15.02-6.25-1.58,4-1.14,11.18c-4.26.53-8.39,1.84-12.17,3.86l-5.9-8.28-12.41,5.22-1.59,3.98,7.5,10.6c-1.27,1.96-2.34,4.04-3.2,6.2-.31.74-.55,1.5-.74,2.28l-9.93-5.55-1.58,3.99-2.85,16.51,13.26,1.84h0c.47,2.66,1.25,5.25,2.33,7.73l-7.75,3.86-1.58,3.99,10.32,13.26,9.45-7.86h0c2.47,1.95,5.2,3.56,8.11,4.78h0l-.38,12.14,16.72,1.13,1.58-3.99-1.2-6.82h0c3.25-.32,6.44-1.11,9.47-2.35l5.5,7.47,13.85-9.44,1.58-4-7.37-3.92c2.42-2.85,4.36-6.09,5.72-9.57ZM329.14,304.24c-8.8-3.43-13.15-13.34-9.72-22.14,3.43-8.8,13.34-13.15,22.14-9.72,8.8,3.43,13.15,13.34,9.72,22.14-.01.03-.02.06-.03.08-3.46,8.75-13.34,13.05-22.11,9.63h0Z"/><path class="cls-14_creative-process-46 targetColor" d="M369.21,297.08c.1-.24.18-.48.22-.74h0l7.58,1.68,4.22-16.21-9.88-2.21c-.54-3.82-1.72-7.52-3.49-10.94h0l7.56-5.16-8.93-14.17-9.73,6.59c-2.17-1.54-4.52-2.81-6.99-3.78-.2-.09-.4-.14-.61-.18l1.08-10.88-16.6-2.26-1.14,11.18c-4.26.54-8.38,1.87-12.15,3.91l-5.9-8.29-14,9.22,7.49,10.6c-1.26,1.96-2.33,4.03-3.19,6.2-.31.74-.55,1.5-.74,2.28l-11.51-1.55-2.85,16.51,13.3,1.85h0c.47,2.66,1.25,5.25,2.32,7.72l-9.39,7.8,10.32,13.23,9.45-7.86h0c2.47,1.96,5.2,3.56,8.11,4.78h0l-.38,12.14,16.72,1.13.38-10.82h0c3.26-.33,6.45-1.12,9.48-2.35l5.48,7.49,13.84-9.44-5.79-7.91c2.43-2.85,4.38-6.08,5.74-9.57ZM330.72,300.24c-8.8-3.43-13.15-13.34-9.72-22.14,3.43-8.8,13.34-13.15,22.14-9.72,8.8,3.43,13.15,13.34,9.72,22.14-.01.03-.02.05-.03.08-3.47,8.74-13.34,13.05-22.11,9.64h0Z" style="fill: rgb(90, 87, 238);"/></g><g id="character_creative-process-46"><path class="cls-14_creative-process-46 targetColor" d="M260.66,184.72c-2.96-.66-6.03-.76-9.03-.29-.74.03-1.44.36-1.92.93-.34.61-.3,1.36.1,1.93.39.55.89,1.01,1.47,1.35,4.17,2.61,9.16,3.51,14,4.35.27.07.55.07.82,0,.5-.18.69-.79.8-1.32l1.52-7.16c.06-.2.06-.41,0-.61-.07-.17-.18-.33-.32-.44-.97-.91-3.53-2.39-4.89-1.53-1.36.85-.41,3.29-2.55,2.81Z" style="fill: rgb(90, 87, 238);"/><path class="cls-4_creative-process-46" d="M260.66,184.72c-2.96-.66-6.03-.76-9.03-.29-.74.03-1.44.36-1.92.93-.34.61-.3,1.36.1,1.93.39.55.89,1.01,1.47,1.35,4.17,2.61,9.16,3.51,14,4.35.27.07.55.07.82,0,.5-.18.69-.79.8-1.32l1.52-7.16c.06-.2.06-.41,0-.61-.07-.17-.18-.33-.32-.44-.97-.91-3.53-2.39-4.89-1.53-1.36.85-.41,3.29-2.55,2.81Z"/><path class="cls-14_creative-process-46 targetColor" d="M335.25,94.64s8.01,4.96,8.89,5.95c.88.99-9.2,51.89-9.74,54.38s-14.74-2.31-20.52-4.3c-5.78-2-11.15-11.54-11.15-11.54,0,0,6.49-43.83,7.79-44.6s13.15-2.65,13.15-2.65l11.58,2.77Z" style="fill: rgb(90, 87, 238);"/><path class="cls-14_creative-process-46 targetColor" d="M312.83,93.76s-3.03.41-4.75,1.89c-1.72,1.48-16.47,20.21-15.68,24.7.79,4.5,5.43,6.52,7.01,5.9s5.41-6.17,6.15-7.8c.74-1.64,10.88-14.52,10.88-14.52l-3.62-10.16Z" style="fill: rgb(90, 87, 238);"/><path class="cls-12_creative-process-46" d="M336.36,89.66s-1.55,5.36-1.25,7.48c.3,2.12-3.37,7.79-7.54,7.55-4.17-.24-3.79-7.37-3.74-8.17s1.32-1.18,1.02-3.29,11.24-6.08,11.51-3.57Z"/><path class="cls-13_creative-process-46" d="M324.84,93.22c.18,1-.13,2.03-.83,2.78.87.97,2.06,1.57,3.35,1.71,2.51.14,6.39-1.74,8.27-5.41l.1-.2c.32-1.37.62-2.43.62-2.43-.27-2.53-11.81,1.46-11.52,3.55Z"/><path class="cls-11_creative-process-46" d="M335.07,96.36s-3.82,7.7-6.73,8.37c0,0-.8.38,1.22,1.75s8.22-4.57,7.64-9.22c-.11-1.2-.85-2.26-1.94-2.78l-.19,1.88Z"/><path class="cls-11_creative-process-46" d="M324.8,94.08s-1.25,5.75.87,9.87c0,0-1.08,1.44-1.92,1.39s-2.65-5.16-1.6-8.89c.61-2.2,2.26-3.01,2.65-2.37Z"/><path class="cls-10_creative-process-46" d="M333.98,154.94l-3.1,32.95-4.05,50.49s-2.21,1.97-7.61,1.25l-2.03-53.8-5.02-24.83-27.34-4.08c-2-.72-4.22.25-5.05,2.21l-11.16,26.23s-4.38-2.04-7.07-3.04l9.23-36.52c.81-3.22,4.08-5.17,7.3-4.36.06.01.11.03.17.05l26.21-2.16,29.52,15.6Z"/><path class="cls-12_creative-process-46" d="M323.25,76.78s-1.47,10.82-.77,13.8c.7,2.98,3.04,5.62,5.55,5.76s6.39-1.74,8.27-5.41c1.88-3.67,3.23-12.82,2.88-14.09s-2.65-5.37-9.36-5.16c-4.62.18-6.48,3.43-6.57,5.11Z"/><path class="cls-10_creative-process-46" d="M327.18,73.49l-.83,1.82c-.17.59-.77.95-1.37.8-.57,0-1.15,0-1.72-.06-.21,0-.42-.05-.6-.17-.43-.35-.55-1.34-.8-1.84-.43-.63-.67-1.37-.69-2.14.06-.43.23-.83.48-1.19.41-.6.94-1.1,1.55-1.47.27-.14.53-.3.77-.49.31-.32.58-.69.8-1.08,1.62-2.41,4.88-3.07,7.3-1.47.69.45,1.43,1.11,2.21.9.29-.07.54-.25.82-.35.45-.11.93-.11,1.38,0,1.13.12,2.23.48,3.22,1.05,1.26.85,1.95,2.31,3.02,3.39.81.81,1.83,1.4,2.57,2.27s1.13,2.21.47,3.15c-.57.8-1.72,1.04-2.21,1.89-.24.41-.27.9-.5,1.31-.27.38-.59.73-.96,1.02-.36.46-.66.97-.87,1.51-.39.66-.83,1.29-1.3,1.89-.22.28-.51.59-.86.55s-.63-.6-.69-1.05c-.22-1.45-.35-2.91-.39-4.37.02-.46-.04-.92-.18-1.36-.28-.6-.73-1.12-1.29-1.47-1.73-1.3-3.7-2.25-5.78-2.82-.6-.16-1.2-.29-1.81-.45-.53-.22-1.13-.22-1.66,0"/><path class="cls-12_creative-process-46" d="M337.95,83.89s.55-2.48,2.21-1.55c1.66.93-.74,5.41-1.58,5.78-.39.21-.83.31-1.27.29"/><path class="cls-14_creative-process-46 targetColor" d="M281.88,138.23c-.11.42-.09.85.05,1.26.18.34.45.61.79.78,2.28,1.37,5.35.6,7.43-1.06s3.43-4.04,4.86-6.29c1.26-1.99,2.61-3.93,4.05-5.79.54-.74,1.12-1.58.8-2.41-.15-.32-.37-.61-.64-.84-4.72-4.63-2.02-11.35-6.14-6.26-3.24,3.96-10.4,15.57-11.19,20.62Z" style="fill: rgb(90, 87, 238);"/><path class="cls-12_creative-process-46" d="M276.41,138.59c-.92.71-1.55,1.73-1.75,2.87-.11,1.14.74,2.42,1.91,2.35.5-.08.98-.25,1.41-.49,1.42-.6,3.01-.53,4.55-.63s3.19-.46,4.19-1.62c.79-.95,1.02-2.24.6-3.4-1.75-4.83-8.45-1.3-10.91.92Z"/><path class="cls-14_creative-process-46 targetColor" d="M318.61,244.21c-1.06,1.18-2.03,2.43-2.9,3.74-.7.95-1.21,2.02-1.52,3.15-.14.51-.14,1.05,0,1.55.28.68.85,1.2,1.55,1.41.7.21,1.43.27,2.15.18,2.88-.21,5.64-1.23,7.97-2.95.83-.56,1.52-1.32,1.98-2.21.41-1.12.45-2.35.1-3.49-.29-1.15-.74-2.25-1.1-3.39-.36-1.14-.49-2.38-.74-3.57-.01-.23-.21-.41-.44-.4,0,0,0,0,0,0-1.47-.21-3.96-.35-4.89,1.16-.31.62-.51,1.28-.62,1.96-.25,1.07-.79,2.05-1.55,2.84Z" style="fill: rgb(90, 87, 238);"/><path class="cls-2_creative-process-46" d="M318.59,244.41c-1.06,1.18-2.03,2.43-2.91,3.74-.69.95-1.21,2.02-1.52,3.15-.14.51-.14,1.05,0,1.55.28.68.85,1.2,1.55,1.41.7.21,1.43.27,2.15.18,2.88-.21,5.64-1.23,7.97-2.95.84-.57,1.53-1.34,1.98-2.25.42-1.12.46-2.35.1-3.49-.29-1.15-.77-2.21-1.1-3.39s-.49-2.38-.74-3.57c-.01-.1-.05-.19-.12-.27-.09-.07-.21-.11-.32-.12-1.51-.21-3.96-.35-4.89,1.15-.3.62-.51,1.28-.62,1.96-.25,1.08-.78,2.07-1.54,2.87Z"/><path class="cls-14_creative-process-46 targetColor" d="M350.05,105.72c3.1,3.68,4.2,5.33,7.12,9.16.18-8.51,2.27-14.91,2.45-23.42-.06-.48.1-.95.43-1.3.31-.18.66-.26,1.02-.21,1.82.05,3.63.29,5.4.74.34.05.66.21.89.46.18.32.24.69.18,1.05-.53,7.89-1.05,15.78-1.56,23.67-.13,3.75-.6,7.48-1.41,11.15-.44,1.72-1.17,3.57-2.77,4.36-2.07,1.02-4.51-.23-6.37-1.6-5.94-4.36-10.6-10.2-15.18-15.97-.49-.54-.88-1.17-1.13-1.86-.2-.86-.2-1.75,0-2.6.35-2.31.24-8.96,3.35-9.29,2.75-.25,6.1,3.88,7.59,5.66Z" style="fill: rgb(90, 87, 238);"/><path class="cls-12_creative-process-46" d="M358.42,86.13c-.13-1.72-.24-3.54.56-5.07.2-.33.39-.68.55-1.04.15-.45.22-.92.22-1.4.1-2.17.12-4.42,1.02-6.4.17-.38.45-.79.86-.8s.78.6.9,1.11c.38,1.65.6,3.33.63,5.02-.03.3.05.6.22.85.14.14.32.24.51.29.76.15,1.48.48,2.1.95.32.32.51.74.81,1.07.34.32.71.6,1.11.85.99.85,1.59,2.07,1.67,3.37.08,1.29-.14,2.59-.64,3.79-.5,1.31-1.29,2.65-2.61,3.13-.91.25-1.87.29-2.79.1-3.24-.41-4.88-2.64-5.11-5.82Z"/></g><g id="lamp_creative-process-46"><path class="cls-14_creative-process-46 targetColor" d="M220.96,146.77s2,3.85,3.28,4.42,12.23.61,13.26.14,3.14-4.75,3.14-4.75l-19.68.19Z" style="fill: rgb(90, 87, 238);"/><path class="cls-7_creative-process-46" d="M220.96,146.77s2,3.85,3.28,4.42,12.23.61,13.26.14,3.14-4.75,3.14-4.75l-19.68.19Z"/><path class="cls-14_creative-process-46 targetColor" d="M244.84,127.98c-.06.22-.07.45-.04.67.67,3.46-19.4,20.33-26.14,1.34-.57-1.64-1.01-3.32-1.3-5.03,0,0-17.62-36.43-5.39-52.32,12.23-15.9,39.51-13.93,47.85,7.79,6.18,16.07-13.75,41.96-14.97,47.55Z" style="fill: rgb(90, 87, 238);"/><path class="cls-8_creative-process-46" d="M244.84,127.98c-.06.22-.07.45-.04.67.67,3.46-19.4,20.33-26.14,1.34-.57-1.64-1.01-3.32-1.3-5.03,0,0-17.62-36.43-5.39-52.32,12.23-15.9,39.51-13.93,47.85,7.79,6.18,16.07-13.75,41.96-14.97,47.55Z"/><path class="cls-6_creative-process-46" d="M244.81,128.62c.67,3.46-19.4,20.33-26.14,1.34,7.87-4.91,17.65-5.66,26.18-1.99-.06.21-.07.43-.04.65Z"/><path class="cls-14_creative-process-46 targetColor" d="M219.57,136.08c.14.27.2.57.18.87-.08.28-.23.53-.43.74-.94,1.27-.97,2.99-.07,4.29-1.43.37-1.75,2.45-.88,3.64s2.39,1.67,3.82,2c5.68,1.29,11.56,1.34,17.26.15,2.21-.46,4.62-1.36,5.38-3.46-.37-.61-.87-1.13-1.47-1.53.66-.74,1.33-1.83.7-2.58-.21-.25-.52-.39-.74-.62-.47-.65-.51-1.52-.11-2.21.4-.67.67-1.41.8-2.17,0-1.04-.74-1.93-1.76-2.11-5.2,2.06-10.99,4.14-16.21,2.21-2.44-.96-8.81-5.45-6.46.77Z" style="fill: rgb(90, 87, 238);"/><path class="cls-5_creative-process-46" d="M219.57,136.08c.14.27.2.57.18.87-.08.28-.23.53-.43.74-.94,1.27-.97,2.99-.07,4.29-1.43.37-1.75,2.45-.88,3.64s2.39,1.67,3.82,2c5.68,1.29,11.56,1.34,17.26.15,2.21-.46,4.62-1.36,5.38-3.46-.37-.61-.87-1.13-1.47-1.53.66-.74,1.33-1.83.7-2.58-.21-.25-.52-.39-.74-.62-.47-.65-.51-1.52-.11-2.21.4-.67.67-1.41.8-2.17,0-1.04-.74-1.93-1.76-2.11-5.2,2.06-10.99,4.14-16.21,2.21-2.44-.96-8.81-5.45-6.46.77Z"/><path class="cls-11_creative-process-46" d="M236.69,135.43l-1.78-.43,2.21-8.84c4.12-16.73,3.41-20.59,2.62-21.37-.06-.06-.13-.13-.4-.07-.35.06-.67.21-.95.42.52.83.91,1.74,1.16,2.69.46,1.86.15,3.36-.86,4.13-.61.55-1.5.65-2.21.25-1.25-.74-1.47-2.95-1.22-4.72.13-.84.42-1.65.84-2.4-.43-.51-1.02-.87-1.67-1.02-.84-.16-1.67.41-2.45,1.62-.3.48-.58.97-.83,1.47,1.74,1.61,2.81,4.56,2.02,6.04-.28.68-.97,1.1-1.7,1.05-1.01-.07-1.91-.68-2.35-1.6-.38-.69-.97-2.28-.21-4.76-.57-.17-1.33-.04-2.21,1.18-2.63,3.6.97,19.76,2.58,25.67l-1.75.48c-.62-2.26-5.9-22.27-2.3-27.27,1.61-2.21,3.29-2.21,4.38-1.79.25-.51.54-1,.85-1.47,1.47-2.35,3.15-2.63,4.27-2.44.99.2,1.88.72,2.56,1.47.5-.4,1.08-.68,1.71-.82.75-.19,1.55.04,2.09.6,1.31,1.36,2.25,5.2-2.17,23.12l-2.24,8.82ZM230.45,109.1c-.24.88-.15,1.82.24,2.65.27.48.59.65.74.65h0c.35-.54-.08-2.11-.97-3.29ZM237.26,106.89c-.1.29-.18.59-.23.89-.27,1.55.1,2.68.34,2.86,0,0,.07-.04.19-.13.39-.29.46-1.17.2-2.21-.12-.5-.28-.99-.5-1.45v.04Z"/></g></svg>